<svg width="190" height="168" viewBox="0 0 190 168" fill="none" xmlns="http://www.w3.org/2000/svg">
<path d="M178.803 96.3641L145.734 51.7041C145.053 50.7835 144.166 50.0357 143.143 49.5209C142.121 49.006 140.992 48.7387 139.847 48.7403H39.9911C38.8463 48.7387 37.7171 49.006 36.6945 49.5209C35.6719 50.0357 34.7846 50.7835 34.1041 51.7041L1.0354 96.3641V150.788C1.0354 153.75 2.21171 156.589 4.30555 158.683C6.3994 160.777 9.23926 161.953 12.2004 161.953H167.658C170.619 161.953 173.459 160.777 175.553 158.683C177.646 156.589 178.823 153.75 178.823 150.788L178.803 96.3641Z" fill="#093F68"/>
<path d="M167.658 162.948H12.1801C8.94975 162.948 5.85172 161.665 3.56753 159.381C1.28334 157.096 9.18069e-05 153.998 9.18069e-05 150.768V96.3641C-0.00284579 96.1456 0.0647832 95.9321 0.192937 95.7551L33.2616 51.0951C34.04 50.0487 35.0518 49.1983 36.2164 48.6116C37.3811 48.0248 38.6666 47.7179 39.9708 47.7151H139.826C141.131 47.7179 142.416 48.0248 143.581 48.6116C144.746 49.1983 145.757 50.0487 146.536 51.0951L179.604 95.7551C179.732 95.9321 179.8 96.1456 179.797 96.3641V150.788C179.792 154.008 178.512 157.095 176.237 159.374C173.962 161.652 170.878 162.937 167.658 162.948ZM2.05039 96.699V150.788C2.05039 153.48 3.11976 156.062 5.02325 157.966C6.92675 159.869 9.50844 160.938 12.2004 160.938H167.658C170.35 160.938 172.931 159.869 174.835 157.966C176.738 156.062 177.808 153.48 177.808 150.788V96.699L144.942 52.2928C144.353 51.5012 143.588 50.8578 142.707 50.4138C141.826 49.9698 140.854 49.7374 139.867 49.735H39.9911C39.0045 49.7374 38.0321 49.9698 37.1511 50.4138C36.2702 50.8578 35.5049 51.5012 34.9161 52.2928L2.05039 96.699Z" fill="#093F68"/>
<path d="M178.803 96.3641V150.788C178.803 153.75 177.626 156.589 175.532 158.683C173.439 160.777 170.599 161.953 167.638 161.953H12.1801C9.21899 161.953 6.37913 160.777 4.28529 158.683C2.19145 156.589 1.01514 153.75 1.01514 150.788V96.3641H49.1363L53.6632 118.694C54.0728 120.701 55.1636 122.505 56.7507 123.799C58.3377 125.094 60.3236 125.801 62.3719 125.799H118.034C120.11 125.797 122.119 125.071 123.716 123.747C125.314 122.422 126.399 120.581 126.784 118.542L130.966 96.3032L178.803 96.3641Z" fill="black"/>
<path d="M167.648 162.948H12.1801C8.94979 162.948 5.85175 161.665 3.56756 159.381C1.28337 157.096 0.00012207 153.998 0.00012207 150.768V96.3641C0.00012207 96.0949 0.107058 95.8367 0.297408 95.6464C0.487757 95.456 0.745927 95.3491 1.01512 95.3491H49.1363C49.3737 95.3443 49.6053 95.4229 49.7908 95.5713C49.9763 95.7197 50.1038 95.9284 50.1513 96.1611L54.6782 118.491C55.0384 120.273 56.0029 121.875 57.4085 123.027C58.8142 124.179 60.5746 124.811 62.3922 124.815H118.055C119.893 124.813 121.674 124.169 123.088 122.994C124.502 121.819 125.461 120.187 125.799 118.379L129.981 96.1408C130.026 95.9062 130.153 95.6952 130.339 95.5448C130.524 95.3944 130.757 95.3143 130.996 95.3186H178.813C179.082 95.3186 179.34 95.4256 179.53 95.6159C179.721 95.8063 179.828 96.0645 179.828 96.3336V150.758C179.829 152.358 179.515 153.943 178.903 155.422C178.292 156.901 177.395 158.245 176.264 159.377C175.133 160.509 173.789 161.407 172.311 162.02C170.833 162.633 169.248 162.948 167.648 162.948ZM2.05042 97.3791V150.788C2.05042 153.48 3.11979 156.062 5.02328 157.966C6.92678 159.869 9.50847 160.938 12.2004 160.938H167.648C170.34 160.938 172.921 159.869 174.825 157.966C176.728 156.062 177.798 153.48 177.798 150.788V97.3791H131.828L127.768 118.785C127.347 121.063 126.142 123.122 124.362 124.605C122.583 126.088 120.341 126.901 118.024 126.905H62.3922C60.1067 126.902 57.8925 126.109 56.1244 124.661C54.3562 123.212 53.1426 121.198 52.6888 118.958L48.304 97.3791H2.05042Z" fill="#093F68"/>
<path d="M40.0824 139.776H20.1478C19.8786 139.776 19.6204 139.669 19.4301 139.478C19.2397 139.288 19.1328 139.03 19.1328 138.761C19.1328 138.491 19.2397 138.233 19.4301 138.043C19.6204 137.853 19.8786 137.746 20.1478 137.746H40.0824C40.3516 137.746 40.6098 137.853 40.8001 138.043C40.9905 138.233 41.0974 138.491 41.0974 138.761C41.0974 139.03 40.9905 139.288 40.8001 139.478C40.6098 139.669 40.3516 139.776 40.0824 139.776Z" fill="#093F68"/>
<path d="M53.8865 35.3727C53.5731 35.3712 53.2643 35.297 52.9843 35.1562C52.7043 35.0153 52.4607 34.8115 52.2726 34.5607L38.4585 16.2907C38.1341 15.86 37.9941 15.3181 38.0693 14.7842C38.1445 14.2502 38.4287 13.768 38.8594 13.4437C39.2901 13.1193 39.8321 12.9793 40.366 13.0545C40.8999 13.1297 41.3821 13.4139 41.7065 13.8446L55.5105 32.1146C55.8346 32.5441 55.975 33.0846 55.9008 33.6175C55.8265 34.1504 55.5438 34.632 55.1147 34.9566C54.7618 35.2258 54.3304 35.372 53.8865 35.3727Z" fill="#DFEAEF"/>
<path d="M119.293 35.3727C118.85 35.3684 118.42 35.2226 118.065 34.9566C117.636 34.632 117.353 34.1504 117.279 33.6175C117.205 33.0846 117.345 32.5441 117.669 32.1146L131.483 13.8446C131.814 13.434 132.292 13.1684 132.815 13.1038C133.339 13.0393 133.867 13.181 134.287 13.4988C134.708 13.8167 134.989 14.2859 135.07 14.807C135.151 15.3281 135.026 15.8602 134.721 16.2907L120.917 34.5607C120.728 34.8129 120.483 35.0175 120.201 35.1584C119.919 35.2994 119.608 35.3727 119.293 35.3727Z" fill="#DFEAEF"/>
<path d="M88.1833 29.2827C87.6449 29.2827 87.1286 29.0689 86.7479 28.6882C86.3672 28.3075 86.1533 27.7911 86.1533 27.2527V2.03C86.1533 1.49161 86.3672 0.975271 86.7479 0.594572C87.1286 0.213873 87.6449 0 88.1833 0C88.7217 0 89.238 0.213873 89.6187 0.594572C89.9994 0.975271 90.2133 1.49161 90.2133 2.03V27.2527C90.2133 27.7911 89.9994 28.3075 89.6187 28.6882C89.238 29.0689 88.7217 29.2827 88.1833 29.2827Z" fill="#DFEAEF"/>
<path d="M184.761 132.021H126.307C124.126 132.021 122.358 133.789 122.358 135.969V162.674C122.358 164.855 124.126 166.622 126.307 166.622H184.761C186.941 166.622 188.709 164.855 188.709 162.674V135.969C188.709 133.789 186.941 132.021 184.761 132.021Z" fill="#FFBC0E"/>
<path d="M184.761 167.648H126.307C124.991 167.645 123.73 167.121 122.8 166.191C121.87 165.261 121.346 164 121.343 162.684V135.969C121.346 134.654 121.87 133.393 122.8 132.463C123.73 131.533 124.991 131.009 126.307 131.006H184.761C186.076 131.009 187.337 131.533 188.267 132.463C189.197 133.393 189.721 134.654 189.724 135.969V162.684C189.721 164 189.197 165.261 188.267 166.191C187.337 167.121 186.076 167.645 184.761 167.648ZM126.307 133.036C125.529 133.036 124.783 133.345 124.233 133.895C123.682 134.445 123.373 135.191 123.373 135.969V162.684C123.373 163.462 123.682 164.208 124.233 164.758C124.783 165.308 125.529 165.618 126.307 165.618H184.761C185.538 165.615 186.282 165.305 186.832 164.755C187.381 164.206 187.691 163.461 187.694 162.684V135.969C187.691 135.192 187.381 134.448 186.832 133.898C186.282 133.349 185.538 133.039 184.761 133.036H126.307Z" fill="#093F68"/>
<path d="M132.356 142.455H140.131V144.79H134.873V146.921H139.837V149.246H134.873V151.58H140.415V153.904H132.356V142.455Z" fill="#093F68"/>
<path d="M142.13 146.008H144.465V147.074C144.547 146.907 144.657 146.756 144.79 146.627C144.933 146.466 145.101 146.329 145.287 146.221C145.495 146.097 145.716 145.998 145.947 145.927C146.211 145.852 146.484 145.814 146.759 145.815C147.266 145.805 147.768 145.921 148.22 146.15C148.655 146.389 148.995 146.768 149.185 147.226C149.41 146.772 149.763 146.395 150.2 146.14C150.639 145.936 151.115 145.826 151.599 145.816C152.083 145.805 152.564 145.895 153.011 146.079C153.351 146.248 153.644 146.499 153.864 146.81C154.085 147.138 154.241 147.507 154.321 147.896C154.413 148.333 154.457 148.779 154.453 149.225V153.864H152.027V149.286C152.034 148.956 151.954 148.631 151.793 148.342C151.704 148.206 151.58 148.097 151.433 148.027C151.286 147.957 151.123 147.929 150.961 147.946C150.72 147.939 150.48 147.988 150.261 148.089C150.077 148.17 149.92 148.3 149.804 148.464C149.689 148.637 149.606 148.83 149.56 149.032C149.51 149.256 149.486 149.484 149.489 149.712V153.864H147.063V149.712C147.063 149.57 147.063 149.398 147.063 149.195C147.053 148.994 147.012 148.795 146.942 148.606C146.883 148.424 146.774 148.262 146.627 148.139C146.442 148.005 146.216 147.937 145.987 147.946C145.726 147.937 145.467 147.997 145.236 148.119C145.048 148.222 144.893 148.377 144.79 148.566C144.684 148.765 144.616 148.981 144.587 149.205C144.571 149.455 144.571 149.706 144.587 149.956V153.864H142.161L142.13 146.008Z" fill="#093F68"/>
<path d="M156.422 146.008H158.655V147.023C158.766 146.866 158.896 146.723 159.04 146.596C159.202 146.437 159.387 146.304 159.589 146.201C159.805 146.08 160.033 145.981 160.269 145.906C160.529 145.832 160.799 145.795 161.07 145.795C161.612 145.789 162.15 145.889 162.654 146.089C163.111 146.287 163.525 146.573 163.872 146.931C164.215 147.305 164.48 147.743 164.653 148.22C164.841 148.745 164.934 149.298 164.927 149.855C164.93 150.389 164.847 150.92 164.684 151.428C164.524 151.91 164.28 152.36 163.963 152.757C163.663 153.145 163.282 153.464 162.847 153.691C162.382 153.928 161.866 154.046 161.345 154.036C160.861 154.044 160.379 153.965 159.924 153.803C159.491 153.653 159.115 153.373 158.848 153.001V157.528H156.422V146.008ZM158.655 149.936C158.63 150.464 158.812 150.981 159.162 151.377C159.349 151.564 159.573 151.709 159.819 151.804C160.066 151.898 160.33 151.94 160.593 151.925C160.857 151.942 161.122 151.901 161.369 151.807C161.615 151.712 161.839 151.566 162.025 151.377C162.352 150.968 162.531 150.46 162.531 149.936C162.531 149.412 162.352 148.903 162.025 148.494C161.839 148.306 161.615 148.16 161.369 148.065C161.122 147.97 160.857 147.93 160.593 147.946C160.33 147.932 160.066 147.973 159.819 148.068C159.573 148.162 159.349 148.308 159.162 148.494C158.984 148.696 158.847 148.93 158.76 149.185C158.673 149.439 158.637 149.708 158.655 149.976V149.936Z" fill="#093F68"/>
<path d="M171.738 148.038H169.596V150.656C169.58 150.852 169.58 151.049 169.596 151.245C169.608 151.409 169.657 151.569 169.739 151.712C169.821 151.843 169.942 151.945 170.084 152.006C170.28 152.087 170.491 152.125 170.703 152.118C170.835 152.118 171.007 152.118 171.22 152.118C171.395 152.102 171.561 152.035 171.697 151.925V153.955C171.426 154.054 171.143 154.119 170.855 154.148C170.569 154.185 170.281 154.202 169.992 154.199C169.613 154.204 169.234 154.159 168.866 154.067C168.541 153.992 168.234 153.854 167.962 153.661C167.699 153.47 167.489 153.215 167.353 152.92C167.197 152.576 167.121 152.201 167.13 151.824V148.038H165.577V146.008H167.13V143.683H169.556V146.008H171.697L171.738 148.038Z" fill="#093F68"/>
<path d="M177.493 155.143C177.331 155.559 177.168 155.934 177.016 156.259C176.886 156.567 176.692 156.843 176.448 157.071C176.197 157.306 175.894 157.48 175.565 157.579C175.108 157.701 174.636 157.756 174.164 157.741C173.547 157.745 172.933 157.649 172.347 157.457L172.672 155.427C173.026 155.587 173.41 155.67 173.799 155.671C174.025 155.678 174.252 155.647 174.468 155.579C174.63 155.528 174.777 155.438 174.895 155.315C175.011 155.196 175.107 155.059 175.179 154.909L175.423 154.341L175.595 153.884L172.134 146.008H174.753L176.783 151.194L178.518 146.008H181.005L177.493 155.143Z" fill="#093F68"/>
</svg>
