<svg width="170" height="78" viewBox="0 0 170 78" fill="none" xmlns="http://www.w3.org/2000/svg">
<path d="M101.4 52.4C102.533 52.4 103.1 53.9333 103.1 57C103.1 58.6667 102.4 60.7 101 63.1C99.6 65.4333 97.7667 67.6 95.5 69.6C93.3 71.5333 90.8333 73.1333 88.1 74.4C85.3667 75.6667 82.4667 76.3 79.4 76.3C76.4 76.3 74.0333 75.3333 72.3 73.4C70.6333 71.4 69.8 69.2 69.8 66.8C69.8 64.3333 70.2 61.5667 71 58.5C71.8 55.4333 72.6667 52.2333 73.6 48.9C76.1333 40.0333 77.4333 33.8 77.5 30.2C77.5 28.6667 77.3 27.5 76.9 26.7C76.5 25.8333 75.7333 25.4 74.6 25.4C72.6 25.4 70.4667 26.6 68.2 29C65.9333 31.4 63.8 34.4667 61.8 38.2C57.2 46.7333 54.7667 55.0667 54.5 63.2C54.6333 64.1333 54.7667 65.0667 54.9 66C55.0333 66.9333 55.1 67.9333 55.1 69C55.1 71.1333 54.0333 73.1 51.9 74.9C49.8333 76.6333 47.5 77.5 44.9 77.5C43.3667 77.5 42.2333 76.7667 41.5 75.3C40.7667 73.7667 40.4 71.9 40.4 69.7C40.4 67.5 40.9 64.5 41.9 60.7C42.9 56.9 44 52.8667 45.2 48.6C48.4 37.3333 50.0333 28.9333 50.1 23.4C50.1 20.6 49.7333 18.4 49 16.8C48.3333 15.2 47 14.4 45 14.4C41.4 14.4 37.8333 16.9667 34.3 22.1C30.7667 27.2333 27.6 35.2 24.8 46C24.0667 48.8 23.5 51.2333 23.1 53.3L23 55.2C24.2667 61.3333 24.9 65.3333 24.9 67.2C24.9 71.0667 23.5333 73.6667 20.8 75C19.5333 75.6 18.3 76.1667 17.1 76.7C15.9667 77.2333 14.7333 77.5 13.4 77.5C10.0667 77.5 8.4 74.3333 8.4 68C8.4 61.6 10.1667 49.1333 13.7 30.6C14.9667 23.9333 15.6 20.2 15.6 19.4C15.6 14 14.2333 11.3 11.5 11.3C10.5667 11.3 9.7 11.5667 8.9 12.1C8.16667 12.6333 7.4 13.2 6.6 13.8C5.86667 14.4 5.1 14.9667 4.3 15.5C3.5 16.0333 2.56667 16.3 1.5 16.3C0.5 16.3 0 15.4 0 13.6C0 9.93333 1.7 6.93333 5.1 4.6C8.36667 2.19999 12.3333 0.999994 17 0.999994C23 0.999994 26.5333 3.8 27.6 9.4C27.8667 11.0667 28.0667 12.8333 28.2 14.7C33.1333 5.43333 39.3667 0.799997 46.9 0.799997C55.1 0.799997 59.8 4.73333 61 12.6C61.4 14.8667 61.5667 17.3 61.5 19.9V20.7C65.8333 14.7 70.9667 11.7 76.9 11.7C85.3 11.7 89.5 16.7667 89.5 26.9C89.5 31.3 88.8 36.4667 87.4 42.4C86.0667 48.2667 85.0667 52.5 84.4 55.1C83.8 57.6333 83.5 59.6 83.5 61C83.5 63.5333 84.3667 64.8 86.1 64.8C87.9 64.8 92.1333 61.3333 98.8 54.4C100 53.0667 100.867 52.4 101.4 52.4ZM107.822 64.24C107.822 63.4 107.321 62.98 106.317 62.98C105.337 62.98 104.369 63.75 103.412 65.29C102.456 66.8067 101.861 68.3583 101.627 69.945C101.674 70.4817 101.721 71.0183 101.767 71.555C101.814 72.0917 101.837 72.6167 101.837 73.13C101.837 74.3667 101.429 75.2067 100.612 75.65C100.239 75.86 99.8772 76.0583 99.5272 76.245C99.2005 76.4317 98.8155 76.525 98.3722 76.525C97.9289 76.525 97.5322 76.2333 97.1822 75.65C96.8555 75.0433 96.6922 74.11 96.6922 72.85C96.6922 69.3267 96.9489 66.27 97.4622 63.68C98.2555 59.6667 99.8305 55.3733 102.187 50.8C102.514 50.17 102.992 49.8667 103.622 49.89C104.252 49.89 104.766 50.3217 105.162 51.185C105.559 52.0483 105.746 52.7717 105.722 53.355C105.722 53.9383 105.629 54.51 105.442 55.07C105.279 55.6067 105.057 56.1433 104.777 56.68C104.521 57.1933 104.217 57.73 103.867 58.29C103.541 58.8267 103.214 59.41 102.887 60.04L102.362 62.56C103.272 61.0433 104.497 60.0283 106.037 59.515C106.597 59.3283 107.216 59.235 107.892 59.235C109.479 59.235 110.681 59.5967 111.497 60.32C112.314 61.02 112.722 62.0233 112.722 63.33C112.722 64.6133 112.547 65.92 112.197 67.25C111.871 68.58 111.626 69.5367 111.462 70.12C111.322 70.68 111.252 71.1467 111.252 71.52C111.252 71.8933 111.381 72.08 111.637 72.08C111.987 72.08 112.419 71.8583 112.932 71.415C113.446 70.9717 113.959 70.4933 114.472 69.98C114.986 69.4433 115.452 68.9533 115.872 68.51C116.316 68.0667 116.619 67.845 116.782 67.845C117.109 67.845 117.272 68.2417 117.272 69.035C117.272 70.6683 116.467 72.2433 114.857 73.76C112.151 75.3467 110.424 76.14 109.677 76.14C109.607 76.14 109.561 76.1283 109.537 76.105C107.671 76.105 106.737 74.6117 106.737 71.625C106.737 70.3417 106.854 69.1633 107.087 68.09C107.344 67.0167 107.531 66.235 107.647 65.745C107.764 65.255 107.822 64.7533 107.822 64.24ZM137.003 67.74C137.423 67.74 137.633 68.2767 137.633 69.35C137.633 69.9333 137.388 70.645 136.898 71.485C136.408 72.3017 135.766 73.06 134.973 73.76C134.203 74.4367 133.34 74.9967 132.383 75.44C131.426 75.8833 130.493 76.105 129.583 76.105C128.346 76.105 127.518 75.02 127.098 72.85C126.491 73.8533 125.698 74.6817 124.718 75.335C123.738 75.965 122.42 76.28 120.763 76.28C119.13 76.28 117.811 75.7667 116.808 74.74C115.805 73.7133 115.315 72.465 115.338 70.995C115.338 67.0283 116.656 63.9017 119.293 61.615C120.413 60.6583 121.451 60.0283 122.408 59.725C123.388 59.4217 124.415 59.27 125.488 59.27C126.561 59.27 127.436 59.4567 128.113 59.83C128.44 59.1533 128.813 58.815 129.233 58.815C130.05 58.815 130.82 59.1767 131.543 59.9C132.29 60.6 132.663 61.265 132.663 61.895C132.336 62.665 131.858 63.5867 131.228 64.66C131.041 65.7333 130.948 67.2383 130.948 69.175C130.948 71.1117 131.193 72.08 131.683 72.08C132.29 72.08 133.76 70.8667 136.093 68.44C136.513 67.9733 136.816 67.74 137.003 67.74ZM120.483 69.84C120.483 71.6367 121.148 72.535 122.478 72.535C123.901 72.5117 125.08 71.7533 126.013 70.26C126.34 69.7467 126.608 69.1167 126.818 68.37C126.818 65.7567 127.051 63.5167 127.518 61.65C125.628 62.0233 123.983 62.9333 122.583 64.38C121.183 65.8267 120.483 67.6467 120.483 69.84ZM157.374 67.74C157.794 67.74 158.004 68.2767 158.004 69.35C158.004 69.9333 157.759 70.645 157.269 71.485C156.779 72.3017 156.137 73.06 155.344 73.76C154.574 74.4367 153.711 74.9967 152.754 75.44C151.797 75.8833 150.864 76.105 149.954 76.105C148.717 76.105 147.889 75.02 147.469 72.85C146.862 73.8533 146.069 74.6817 145.089 75.335C144.109 75.965 142.791 76.28 141.134 76.28C139.501 76.28 138.182 75.7667 137.179 74.74C136.176 73.7133 135.686 72.465 135.709 70.995C135.709 67.0283 137.027 63.9017 139.664 61.615C140.784 60.6583 141.822 60.0283 142.779 59.725C143.759 59.4217 144.786 59.27 145.859 59.27C146.932 59.27 147.807 59.4567 148.484 59.83C148.811 59.1533 149.184 58.815 149.604 58.815C150.421 58.815 151.191 59.1767 151.914 59.9C152.661 60.6 153.034 61.265 153.034 61.895C152.707 62.665 152.229 63.5867 151.599 64.66C151.412 65.7333 151.319 67.2383 151.319 69.175C151.319 71.1117 151.564 72.08 152.054 72.08C152.661 72.08 154.131 70.8667 156.464 68.44C156.884 67.9733 157.187 67.74 157.374 67.74ZM140.854 69.84C140.854 71.6367 141.519 72.535 142.849 72.535C144.272 72.5117 145.451 71.7533 146.384 70.26C146.711 69.7467 146.979 69.1167 147.189 68.37C147.189 65.7567 147.422 63.5167 147.889 61.65C145.999 62.0233 144.354 62.9333 142.954 64.38C141.554 65.8267 140.854 67.6467 140.854 69.84ZM157.795 74.11C157.538 73.48 157.352 72.7567 157.235 71.94C157.118 71.1 157.06 69.9333 157.06 68.44C157.06 66.9467 157.34 64.9283 157.9 62.385H156.325C156.045 62.385 155.905 62.2683 155.905 62.035C155.905 61.475 155.952 61.02 156.045 60.67C156.162 60.2967 156.418 59.8767 156.815 59.41H157.655C157.982 59.41 158.332 59.3983 158.705 59.375C159.825 55.7817 160.968 53.985 162.135 53.985C163.068 54.0083 163.722 54.6033 164.095 55.77C164.188 56.0967 164.293 56.4467 164.41 56.82L162.975 59.34C164.608 59.3867 165.635 59.41 166.055 59.41C166.498 59.41 166.732 59.4567 166.755 59.55C166.802 59.62 166.825 59.7367 166.825 59.9C166.825 60.32 166.72 60.845 166.51 61.475C166.323 62.105 166.102 62.4083 165.845 62.385L162.345 62.21C161.855 65.0567 161.61 67.4133 161.61 69.28C161.61 71.1467 161.878 72.08 162.415 72.08C162.858 72.08 163.663 71.7183 164.83 70.995C165.997 70.2483 166.837 69.5367 167.35 68.86C167.863 68.1833 168.283 67.845 168.61 67.845C168.937 67.845 169.1 68.2417 169.1 69.035C169.1 69.8283 168.82 70.645 168.26 71.485C167.7 72.3017 166.988 73.06 166.125 73.76C165.285 74.4367 164.34 74.9967 163.29 75.44C162.263 75.8833 161.365 76.105 160.595 76.105C159.825 76.105 159.23 75.93 158.81 75.58C158.413 75.2067 158.075 74.7167 157.795 74.11Z" fill="black"/>
</svg>
